<?xml version="1.0" standalone="no"?><!DOCTYPE svg PUBLIC "-//W3C//DTD SVG 1.1//EN" "http://www.w3.org/Graphics/SVG/1.1/DTD/svg11.dtd"><svg t="1613360498050" class="icon" viewBox="0 0 1024 1024" version="1.1" xmlns="http://www.w3.org/2000/svg" p-id="1142" xmlns:xlink="http://www.w3.org/1999/xlink" width="200" height="200"><defs><style type="text/css"></style></defs><path d="M625.777778 905.671111a73.671111 73.671111 0 0 1-71.111111-56.888889 28.444444 28.444444 0 0 1 0-6.826666v-2.844445a83.626667 83.626667 0 0 1 0-11.946667v-195.413333h-93.866667v200.817778a73.671111 73.671111 0 0 1-75.093333 72.533333h-68.551111c-41.244444 0-110.648889-18.204444-110.648889-139.093333v-201.955556a75.946667 75.946667 0 0 1-88.746667-15.928889L113.777778 544.426667a71.111111 71.111111 0 0 1 10.524444-100.408889L460.515556 142.222222a76.8 76.8 0 0 1 85.333333-9.386666 28.444444 28.444444 0 0 1 10.524444 5.973333l332.8 306.346667a25.6 25.6 0 0 1 5.973334 7.68 70.542222 70.542222 0 0 1 18.773333 45.795555 69.688889 69.688889 0 0 1-19.057778 51.2 76.515556 76.515556 0 0 1-55.182222 23.893333 71.68 71.68 0 0 1-33.28-7.68V768c0 121.173333-69.404444 139.093333-110.648889 139.093333H625.777778z m-15.075556-67.128889a16.782222 16.782222 0 0 0 15.36 10.24h69.973334c17.635556 0 53.76 0 53.76-82.204444v-258.56a28.444444 28.444444 0 0 1 16.497777-25.884445 28.444444 28.444444 0 0 1 30.151111 3.982223l31.857778 26.453333a18.773333 18.773333 0 0 0 11.377778 4.266667A20.195556 20.195556 0 0 0 853.333333 512a13.937778 13.937778 0 0 0 3.413334-10.24 13.368889 13.368889 0 0 0-4.551111-9.955556 39.822222 39.822222 0 0 1-5.973334-7.395555L522.524444 184.888889a5.688889 5.688889 0 0 1-2.275555 0 19.342222 19.342222 0 0 0-22.471111 1.706667L162.133333 487.253333a15.644444 15.644444 0 0 0-6.542222 10.808889 13.653333 13.653333 0 0 0 3.128889 10.524445 19.626667 19.626667 0 0 0 26.453333 2.275555L216.746667 483.555556a28.444444 28.444444 0 0 1 30.435555-3.982223 28.444444 28.444444 0 0 1 16.213334 25.884445v259.697778c0 82.204444 36.408889 82.204444 53.76 82.204444h69.12a17.351111 17.351111 0 0 0 17.635555-16.497778V625.777778a51.768889 51.768889 0 0 1 51.2-50.915556h103.822222A51.2 51.2 0 0 1 610.417778 625.777778v213.902222zM455.111111 631.751111z m103.537778 0z" p-id="1143" fill="#1296db"></path></svg>